<svg xmlns="http://www.w3.org/2000/svg" viewBox="0 0 48 48" width="48" height="48">
  <path d="M13 6C10.8 6 9 7.8 9 10v28c0 2.2 1.8 4 4 4h22c2.2 0 4-1.8 4-4V16l-10-10H13z" fill="#7248B9"/>
  <path d="M29 6l10 10H33c-2.2 0-4-1.8-4-4V6z" fill="#B39DDB"/>
  <rect x="15" y="20" width="4" height="4" rx="1" fill="#fff"/>
  <rect x="22" y="21" width="12" height="2" rx="1" fill="#E1BEE7"/>
  <rect x="15" y="27" width="4" height="4" rx="1" fill="#fff"/>
  <rect x="22" y="28" width="12" height="2" rx="1" fill="#E1BEE7"/>
  <rect x="15" y="34" width="4" height="4" rx="1" fill="#fff"/>
  <rect x="22" y="35" width="12" height="2" rx="1" fill="#E1BEE7"/>
  <polyline points="16,22.5 17,23.5 19,20.5" fill="none" stroke="#7248B9" stroke-width="1.5" stroke-linecap="round" stroke-linejoin="round"/>
</svg>
